HIERARCHY
ROOT Hips
{
    OFFSET 0.000000 0.000000 0.000000
    CHANNELS 6 Xposition Yposition Zposition Zrotation Xrotation Yrotation
    JOINT Spine
    {
        OFFSET -0.000000 7.675621 0.000000
        CHANNELS 3 Zrotation Xrotation Yrotation
        JOINT Spine1
        {
            OFFSET -0.000000 18.989058 0.000000
            CHANNELS 3 Zrotation Xrotation Yrotation
            JOINT Neck
            {
                OFFSET -0.000000 20.861160 0.000000
                CHANNELS 3 Zrotation Xrotation Yrotation
                JOINT Head
                {
                    OFFSET -0.000000 14.508796 1.872102
                    CHANNELS 3 Zrotation Xrotation Yrotation
                    End Site
                    {
                        OFFSET -0.000000 18.721025 0.000000
                    }
                }
            }
            JOINT LeftShoulder
            {
                OFFSET 3.803890 16.435163 -0.376809
                CHANNELS 3 Zrotation Xrotation Yrotation
                JOINT LeftArm
                {
                    OFFSET 13.491586 0.000000 0.000000
                    CHANNELS 3 Zrotation Xrotation Yrotation
                    JOINT LeftForeArm
                    {
                        OFFSET 26.595486 0.000000 0.000000
                        CHANNELS 3 Zrotation Xrotation Yrotation
                        JOINT LeftHand
                        {
                            OFFSET 27.333027 0.000000 0.000000
                            CHANNELS 3 Zrotation Xrotation Yrotation
                            End Site
                            {
                                OFFSET 14.040770 0.000000 0.000000
                            }
                        }
                    }
                }
            }
            JOINT RightShoulder
            {
                OFFSET -3.655588 16.435163 -0.376809
                CHANNELS 3 Zrotation Xrotation Yrotation
                JOINT RightArm
                {
                    OFFSET -13.491586 0.000000 0.000000
                    CHANNELS 3 Zrotation Xrotation Yrotation
                    JOINT RightForeArm
                    {
                        OFFSET -26.595486 0.000000 0.000000
                        CHANNELS 3 Zrotation Xrotation Yrotation
                        JOINT RightHand
                        {
                            OFFSET -27.333027 0.000000 0.000000
                            CHANNELS 3 Zrotation Xrotation Yrotation
                            End Site
                            {
                                OFFSET -14.040770 0.000000 0.000000
                            }
                        }
                    }
                }
            }
        }
    }
    JOINT LeftUpLeg
    {
        OFFSET 9.360513 0.000000 0.000000
        CHANNELS 3 Zrotation Xrotation Yrotation
        JOINT LeftLeg
        {
            OFFSET -0.000000 -38.119110 0.000000
            CHANNELS 3 Zrotation Xrotation Yrotation
            JOINT LeftFoot
            {
                OFFSET -0.000000 -45.088081 0.000000
                CHANNELS 3 Zrotation Xrotation Yrotation
                JOINT LeftToeBase
                {
                    OFFSET -0.000000 -6.084333 14.040770
                    CHANNELS 3 Zrotation Xrotation Yrotation
                    End Site
                    {
                        OFFSET -0.000000 0.000000 3.744205
                    }
                }
            }
        }
    }
    JOINT RightUpLeg
    {
        OFFSET -9.360513 0.000000 0.000000
        CHANNELS 3 Zrotation Xrotation Yrotation
        JOINT RightLeg
        {
            OFFSET -0.000000 -38.119110 0.000000
            CHANNELS 3 Zrotation Xrotation Yrotation
            JOINT RightFoot
            {
                OFFSET -0.000000 -45.088081 0.000000
                CHANNELS 3 Zrotation Xrotation Yrotation
                JOINT RightToeBase
                {
                    OFFSET -0.000000 -6.084333 14.040770
                    CHANNELS 3 Zrotation Xrotation Yrotation
                    End Site
                    {
                        OFFSET -0.000000 0.000000 3.744205
                    }
                }
            }
        }
    }
}
MOTION
Frames:    14
Frame Time:    0.008333
2.753739    86.268997    -18.728415    0.144555    -0.473598    -5.302605    -2.336416    -10.144333    3.050071    1.356124    5.470043    1.016829    3.240275    6.012262    11.715061    -3.634349    -0.952626    13.134509    5.719650    12.254722    0.797120    -60.324497    39.250813    -22.918280    -0.031405    -12.063353    -20.026884    -9.197305    -12.170778    1.296804    -4.501313    11.975077    -8.788561    50.243649    45.260162    30.545549    -1.692229    -12.469832    30.473097    7.771612    -12.483980    -6.994219    1.771575    2.993539    -5.605397    -2.457407    2.534408    -4.639918    12.697380    -4.750724    14.827688    0.000000    0.000000    0.000000    -4.569141    -1.286536    4.092464    8.641706    8.114963    3.657246    -4.810050    -8.387591    -12.793447    0.000000    0.000000    0.000000    
2.815673    86.241928    -18.795990    0.278629    -0.255588    -5.491520    -2.333983    -10.222145    3.158212    1.245571    5.282981    1.060578    3.251188    6.023577    11.731310    -3.625310    -0.898810    13.154203    5.745807    12.276912    0.828421    -60.494957    39.367172    -22.825613    0.107904    -11.975828    -19.993523    -9.268532    -12.060632    1.303799    -4.565666    11.872173    -8.727589    49.518665    44.897285    30.939627    -2.148759    -12.296655    31.967941    6.835394    -12.105338    -7.024821    1.565739    2.713837    -5.556065    -2.402027    2.581924    -4.384699    12.434085    -4.920049    14.899577    0.000000    0.000000    0.000000    -4.772956    -1.654857    4.050200    8.702356    8.231462    4.024050    -4.858533    -8.469569    -12.924273    0.000000    0.000000    0.000000    
2.822833    86.242744    -18.801495    0.276051    -0.230787    -5.591523    -2.321534    -10.279059    3.150288    1.198297    5.310769    1.059752    3.338374    6.007782    11.784719    -3.660950    -0.834788    13.231226    5.798125    12.279461    0.906299    -60.678032    39.335640    -22.784191    0.119184    -11.853983    -19.861479    -9.316401    -11.935350    1.276100    -4.577534    11.701884    -8.563280    48.844261    44.410103    31.222895    -2.615138    -12.150084    33.566669    6.046108    -11.737891    -6.955482    1.544001    2.614758    -5.675580    -2.378273    2.729520    -6.170207    12.851157    -4.425053    16.718042    0.000000    0.000000    0.000000    -4.770485    -1.700039    4.082140    8.715847    8.240003    3.986567    -4.843382    -8.464330    -12.872144    0.000000    0.000000    0.000000    
2.835100    86.244186    -18.804718    0.275757    -0.212186    -5.686987    -2.324626    -10.276433    3.173546    1.206433    5.237815    1.068009    3.359035    6.031146    11.807679    -3.661775    -0.776829    13.261320    5.812157    12.311693    0.936787    -60.828789    39.363956    -22.725998    0.114419    -11.817087    -19.787460    -9.413165    -11.899748    1.267757    -4.657523    11.561397    -8.483867    48.213966    43.883522    31.495520    -3.142880    -12.025147    35.271915    5.445769    -11.366020    -6.857513    1.556121    2.704291    -5.495759    -2.399054    2.553126    -4.287745    12.730047    -4.791457    14.780886    0.000000    0.000000    0.000000    -4.779970    -1.711584    4.101805    8.713885    8.197971    4.042306    -4.814384    -8.435008    -12.848269    0.000000    0.000000    0.000000    
2.846985    86.245811    -18.809778    0.275094    -0.192462    -5.792649    -2.332571    -10.263453    3.203401    1.231729    5.144634    1.077925    3.350155    6.052244    11.834767    -3.634705    -0.713998    13.286914    5.818909    12.355304    0.965419    -60.978821    39.404938    -22.674271    0.099641    -11.670537    -19.707727    -9.465658    -11.753770    1.235200    -4.762139    11.385598    -8.411268    47.602676    43.322231    31.735447    -3.650451    -11.958879    37.069149    4.781052    -11.033775    -6.711480    1.543366    2.724576    -5.620790    -2.400553    2.488790    -4.042770    12.701750    -4.773426    14.759970    0.000000    0.000000    0.000000    -4.783329    -1.709598    4.129777    8.678294    8.116854    4.116719    -4.798234    -8.392511    -12.798136    0.000000    0.000000    0.000000    
2.852171    86.259903    -18.779938    0.214402    -0.267083    -5.829300    -2.300660    -10.223299    3.179818    1.272988    5.122229    1.067165    3.319682    6.087440    11.878832    -3.595841    -0.676817    13.324151    5.810133    12.398709    0.988399    -61.144844    39.449787    -22.603306    0.105391    -11.674932    -19.641338    -9.537618    -11.755896    1.209292    -4.910385    11.184711    -8.317214    47.017361    42.662659    31.940403    -4.054023    -11.912986    38.996223    3.882774    -10.726745    -6.676697    1.567055    2.749800    -5.656711    -2.374054    2.635079    -5.937252    12.848233    -4.400807    16.690096    0.000000    0.000000    0.000000    -4.729829    -1.562421    4.126353    8.674420    8.029021    4.032380    -4.754349    -8.330310    -12.702090    0.000000    0.000000    0.000000    
2.876313    86.244644    -18.833714    0.305841    -0.117998    -6.044528    -2.375507    -10.246860    3.279686    1.295744    4.919694    1.104115    3.334618    6.087399    11.920938    -3.593534    -0.579112    13.373025    5.815909    12.442561    1.014478    -61.310535    39.488842    -22.545544    0.047951    -11.516312    -19.577728    -9.754306    -11.602348    1.125680    -5.051009    10.939812    -8.215606    46.397545    42.015678    32.129784    -4.462401    -11.911757    41.020382    2.858093    -10.435711    -6.645068    1.486940    2.671923    -5.489294    -2.396351    2.469718    -3.943810    12.731415    -4.754641    14.778738    0.000000    0.000000    0.000000    -4.824784    -1.835087    4.199471    8.688159    8.107506    4.122936    -4.749785    -8.381062    -12.685554    0.000000    0.000000    0.000000    
2.890919    86.247757    -18.833759    0.298131    -0.113844    -6.143897    -2.368924    -10.222804    3.301544    1.306725    4.823522    1.111680    3.360213    6.093831    11.955178    -3.580127    -0.497723    13.414148    5.828163    12.489378    1.033530    -61.509247    39.553062    -22.486603    0.068199    -11.419729    -19.466181    -9.813004    -11.499215    1.080602    -5.203738    10.654144    -8.097274    45.742275    41.388050    32.325981    -4.899855    -11.973707    43.072701    1.852016    -10.178582    -6.555715    1.482391    2.696129    -5.476409    -2.398932    2.437542    -3.857293    12.741833    -4.746483    14.769765    0.000000    0.000000    0.000000    -4.817982    -1.826858    4.193725    8.657787    8.063587    4.192146    -4.708560    -8.350973    -12.634241    0.000000    0.000000    0.000000    
2.906706    86.247940    -18.832710    0.298456    -0.107545    -6.242565    -2.363342    -10.203908    3.322507    1.319964    4.723766    1.118925    3.381160    6.113399    11.999509    -3.585618    -0.417829    13.467422    5.822721    12.545660    1.044353    -61.666615    39.636955    -22.429007    0.075369    -11.248072    -19.370653    -9.638952    -11.331956    1.166600    -5.364228    10.386316    -7.969722    44.973965    40.760059    32.568279    -5.354076    -12.102097    45.205124    1.012410    -9.968019    -6.420941    1.470545    2.717261    -5.448703    -2.406016    2.408798    -3.778498    12.743544    -4.737971    14.758048    0.000000    0.000000    0.000000    -4.824175    -1.820854    4.215521    8.639928    8.015781    4.226876    -4.698002    -8.326709    -12.591391    0.000000    0.000000    0.000000    
2.924789    86.248756    -18.828991    0.298147    -0.116777    -6.331420    -2.343729    -10.173142    3.333265    1.303704    4.623066    1.123501    3.443827    6.165530    12.034794    -3.642826    -0.369357    13.525560    5.832323    12.608231    1.055685    -61.832939    39.763771    -22.386028    0.088223    -11.266789    -19.287626    -9.938564    -11.341245    1.045175    -5.529908    10.080061    -7.797127    44.154121    40.145790    32.794941    -5.883003    -12.273474    47.340553    0.219973    -9.751083    -6.214799    1.453893    2.754655    -5.433328    -2.407616    2.377504    -3.625206    12.740667    -4.747558    14.675866    0.000000    0.000000    0.000000    -4.831036    -1.778304    4.189023    8.587777    7.937450    4.372641    -4.651412    -8.297171    -12.559726    0.000000    0.000000    0.000000    
2.893904    86.271202    -18.780104    0.195096    -0.260775    -6.341320    -2.358533    -10.103163    3.274948    1.415335    4.625373    1.099505    3.460940    6.190943    12.081223    -3.640906    -0.296367    13.579405    5.819567    12.658314    1.064880    -61.983883    39.877964    -22.328459    0.089477    -11.088356    -19.186512    -9.761381    -11.167984    1.126888    -5.710676    9.760032    -7.610535    43.214161    39.524860    33.087860    -6.410708    -12.469013    49.506458    -0.846094    -9.519896    -6.048440    1.593951    2.983971    -5.447256    -2.468590    2.303466    -3.686428    12.727301    -4.705545    14.742973    0.000000    0.000000    0.000000    -4.680396    -1.506982    4.264174    8.519179    7.785408    4.145115    -4.579316    -8.201029    -12.408206    0.000000    0.000000    0.000000    
2.917835    86.272568    -18.779438    0.200857    -0.263404    -6.429012    -2.356369    -10.022903    3.332576    1.465063    4.425615    1.118659    3.423005    6.251003    12.093091    -3.617910    -0.232518    13.585439    5.781491    12.742015    1.010083    -62.085392    40.033077    -22.282999    0.035566    -11.201328    -19.172911    -10.064572    -11.284862    1.034776    -5.974792    9.469165    -7.513865    42.240845    39.044994    33.420155    -7.157270    -12.824258    51.617847    -1.679015    -9.338809    -5.794785    1.565684    3.007061    -5.429119    -2.466449    2.283273    -3.629869    12.750518    -4.689400    14.750523    0.000000    0.000000    0.000000    -4.705190    -1.500899    4.286824    8.516563    7.751915    4.161907    -4.564821    -8.186555    -12.370658    0.000000    0.000000    0.000000    
2.940855    86.272163    -18.780281    0.205825    -0.248884    -6.502998    -2.330656    -10.013770    3.343332    1.457048    4.331279    1.122909    3.388416    6.083303    12.268055    -3.499760    0.086543    13.749112    5.760723    12.776779    1.005207    -62.220009    40.165207    -22.229229    0.005729    -11.098822    -19.108728    -10.111165    -11.183434    0.985148    -6.190654    9.086673    -7.306456    41.210419    38.568478    33.689659    -7.902432    -13.317306    53.739120    -2.600001    -9.260175    -5.543372    1.543022    3.002393    -5.403782    -2.469918    2.278180    -3.674500    12.749631    -4.668764    14.848988    0.000000    0.000000    0.000000    -4.731123    -1.511551    4.317854    8.524890    7.717330    4.193733    -4.547050    -8.167640    -12.354763    0.000000    0.000000    0.000000    
2.963605    86.272263    -18.779219    0.207631    -0.252794    -6.569680    -2.298898    -9.978505    3.357425    1.441332    4.216314    1.128488    3.398293    6.124391    12.295520    -3.490570    0.130666    13.780619    5.741260    12.828856    0.989956    -62.174946    40.429707    -22.235704    -0.168192    -10.830594    -19.149761    -9.841083    -10.958022    1.177004    -6.428605    8.698238    -7.066698    40.130917    38.142567    33.939228    -8.731003    -13.934261    55.805794    -3.416367    -9.242229    -5.223235    1.522678    3.019332    -5.400452    -2.472248    2.268412    -3.667389    12.761676    -4.654557    14.897613    0.000000    0.000000    0.000000    -4.746416    -1.485614    4.346651    8.490897    7.652299    4.283816    -4.519558    -8.143354    -12.346671    0.000000    0.000000    0.000000    
